<mxfile host="Electron" modified="2025-10-03T04:40:44.620Z" agent="Mozilla/5.0 (Windows NT 10.0; Win64; x64) AppleWebKit/537.36 (KHTML, like Gecko) draw.io/24.6.4 Chrome/124.0.6367.207 Electron/30.0.6 Safari/537.36" etag="d9C0hWeGmIIhGONyG45E" version="24.6.4" type="device">
  <diagram name="Página-1" id="2S3bOfhyfB7UsNv-bWX9">
    <mxGraphModel dx="1434" dy="844" grid="1" gridSize="10" guides="1" tooltips="1" connect="1" arrows="1" fold="1" page="1" pageScale="1" pageWidth="827" pageHeight="1169" math="0" shadow="0">
      <root>
        <mxCell id="0" />
        <mxCell id="1" parent="0" />
        <mxCell id="NcyJIrhV6fSXzsekD7ug-1" value="Inicio del programa" style="rounded=0;whiteSpace=wrap;html=1;" parent="1" vertex="1">
          <mxGeometry x="320" y="10" width="240" height="40" as="geometry" />
        </mxCell>
        <mxCell id="NcyJIrhV6fSXzsekD7ug-2" value="" style="endArrow=classic;html=1;rounded=0;" parent="1" edge="1">
          <mxGeometry width="50" height="50" relative="1" as="geometry">
            <mxPoint x="440" y="50" as="sourcePoint" />
            <mxPoint x="440" y="110" as="targetPoint" />
          </mxGeometry>
        </mxCell>
        <mxCell id="NcyJIrhV6fSXzsekD7ug-4" value="Carga de Archivo CSV&lt;div&gt;&lt;br&gt;&lt;div&gt;¿Se cargaron países correctamente?&lt;br&gt;&lt;/div&gt;&lt;/div&gt;" style="rounded=0;whiteSpace=wrap;html=1;" parent="1" vertex="1">
          <mxGeometry x="360" y="110" width="160" height="60" as="geometry" />
        </mxCell>
        <mxCell id="NcyJIrhV6fSXzsekD7ug-6" value="Si.&lt;div&gt;&lt;br&gt;Mostrar mensaje de exito&lt;div&gt;&lt;br&gt;&lt;/div&gt;&lt;/div&gt;" style="text;html=1;align=center;verticalAlign=middle;resizable=0;points=[];autosize=1;strokeColor=none;fillColor=none;" parent="1" vertex="1">
          <mxGeometry x="170" y="175" width="160" height="70" as="geometry" />
        </mxCell>
        <mxCell id="NcyJIrhV6fSXzsekD7ug-8" value="" style="endArrow=classic;html=1;rounded=0;exitX=0.313;exitY=1;exitDx=0;exitDy=0;exitPerimeter=0;" parent="1" source="NcyJIrhV6fSXzsekD7ug-4" edge="1">
          <mxGeometry width="50" height="50" relative="1" as="geometry">
            <mxPoint x="400" y="175" as="sourcePoint" />
            <mxPoint x="260" y="260" as="targetPoint" />
          </mxGeometry>
        </mxCell>
        <mxCell id="NcyJIrhV6fSXzsekD7ug-9" value="Menu principal" style="rounded=0;whiteSpace=wrap;html=1;" parent="1" vertex="1">
          <mxGeometry x="165" y="260" width="170" height="30" as="geometry" />
        </mxCell>
        <mxCell id="NcyJIrhV6fSXzsekD7ug-10" value="" style="endArrow=classic;html=1;rounded=0;entryX=0.367;entryY=0.033;entryDx=0;entryDy=0;entryPerimeter=0;" parent="1" target="NcyJIrhV6fSXzsekD7ug-12" edge="1">
          <mxGeometry width="50" height="50" relative="1" as="geometry">
            <mxPoint x="480" y="170" as="sourcePoint" />
            <mxPoint x="600" y="250" as="targetPoint" />
          </mxGeometry>
        </mxCell>
        <mxCell id="NcyJIrhV6fSXzsekD7ug-11" value="No&lt;br&gt;&lt;br&gt;Mostrar mensaje de error." style="text;html=1;align=center;verticalAlign=middle;resizable=0;points=[];autosize=1;strokeColor=none;fillColor=none;" parent="1" vertex="1">
          <mxGeometry x="560" y="170" width="160" height="60" as="geometry" />
        </mxCell>
        <mxCell id="NcyJIrhV6fSXzsekD7ug-12" value="Fin del Programa" style="rounded=0;whiteSpace=wrap;html=1;" parent="1" vertex="1">
          <mxGeometry x="559" y="260" width="181" height="30" as="geometry" />
        </mxCell>
        <mxCell id="NcyJIrhV6fSXzsekD7ug-14" value="Listar Paises" style="rounded=0;whiteSpace=wrap;html=1;" parent="1" vertex="1">
          <mxGeometry x="20" y="330" width="120" height="30" as="geometry" />
        </mxCell>
        <mxCell id="NcyJIrhV6fSXzsekD7ug-15" value="Filtrar por Continente" style="rounded=0;whiteSpace=wrap;html=1;" parent="1" vertex="1">
          <mxGeometry x="160" y="330" width="120" height="30" as="geometry" />
        </mxCell>
        <mxCell id="NcyJIrhV6fSXzsekD7ug-16" value="Ordenar por superficie" style="rounded=0;whiteSpace=wrap;html=1;" parent="1" vertex="1">
          <mxGeometry x="310" y="330" width="120" height="30" as="geometry" />
        </mxCell>
        <mxCell id="NcyJIrhV6fSXzsekD7ug-17" value="Ordenar por pobilacion" style="rounded=0;whiteSpace=wrap;html=1;" parent="1" vertex="1">
          <mxGeometry x="460" y="330" width="120" height="30" as="geometry" />
        </mxCell>
        <mxCell id="NcyJIrhV6fSXzsekD7ug-20" value="" style="endArrow=none;html=1;rounded=0;" parent="1" edge="1">
          <mxGeometry width="50" height="50" relative="1" as="geometry">
            <mxPoint x="69.5" y="330" as="sourcePoint" />
            <mxPoint x="69.5" y="300" as="targetPoint" />
          </mxGeometry>
        </mxCell>
        <mxCell id="NcyJIrhV6fSXzsekD7ug-21" value="" style="endArrow=none;html=1;rounded=0;" parent="1" edge="1">
          <mxGeometry width="50" height="50" relative="1" as="geometry">
            <mxPoint x="519.5" y="330" as="sourcePoint" />
            <mxPoint x="520" y="300" as="targetPoint" />
          </mxGeometry>
        </mxCell>
        <mxCell id="NcyJIrhV6fSXzsekD7ug-22" value="" style="endArrow=none;html=1;rounded=0;" parent="1" edge="1">
          <mxGeometry width="50" height="50" relative="1" as="geometry">
            <mxPoint x="369.5" y="330" as="sourcePoint" />
            <mxPoint x="369.5" y="300" as="targetPoint" />
          </mxGeometry>
        </mxCell>
        <mxCell id="NcyJIrhV6fSXzsekD7ug-23" value="" style="endArrow=none;html=1;rounded=0;" parent="1" edge="1">
          <mxGeometry width="50" height="50" relative="1" as="geometry">
            <mxPoint x="219.5" y="330" as="sourcePoint" />
            <mxPoint x="220" y="300" as="targetPoint" />
          </mxGeometry>
        </mxCell>
        <mxCell id="NcyJIrhV6fSXzsekD7ug-24" value="" style="endArrow=none;html=1;rounded=0;" parent="1" edge="1">
          <mxGeometry width="50" height="50" relative="1" as="geometry">
            <mxPoint x="70" y="300" as="sourcePoint" />
            <mxPoint x="520" y="300" as="targetPoint" />
          </mxGeometry>
        </mxCell>
        <mxCell id="NcyJIrhV6fSXzsekD7ug-25" value="" style="endArrow=none;html=1;rounded=0;entryX=0.5;entryY=1;entryDx=0;entryDy=0;" parent="1" target="NcyJIrhV6fSXzsekD7ug-9" edge="1">
          <mxGeometry width="50" height="50" relative="1" as="geometry">
            <mxPoint x="250" y="300" as="sourcePoint" />
            <mxPoint x="430" y="260" as="targetPoint" />
          </mxGeometry>
        </mxCell>
        <mxCell id="NcyJIrhV6fSXzsekD7ug-30" value="&lt;div&gt;Estadísticas&lt;/div&gt;&lt;div&gt;&lt;br&gt;&lt;/div&gt;" style="rounded=0;whiteSpace=wrap;html=1;" parent="1" vertex="1">
          <mxGeometry x="204" y="410" width="210" height="60" as="geometry" />
        </mxCell>
        <mxCell id="NcyJIrhV6fSXzsekD7ug-32" value="Salir" style="rounded=0;whiteSpace=wrap;html=1;" parent="1" vertex="1">
          <mxGeometry x="260" y="555" width="120" height="30" as="geometry" />
        </mxCell>
        <mxCell id="NcyJIrhV6fSXzsekD7ug-35" value="" style="endArrow=none;html=1;rounded=0;" parent="1" edge="1">
          <mxGeometry width="50" height="50" relative="1" as="geometry">
            <mxPoint x="336" y="470" as="sourcePoint" />
            <mxPoint x="338" y="554" as="targetPoint" />
          </mxGeometry>
        </mxCell>
        <mxCell id="rtW1V63Y6SK1utUXJB4N-6" value="" style="endArrow=classic;html=1;rounded=0;entryX=1;entryY=0.5;entryDx=0;entryDy=0;exitX=0.5;exitY=1;exitDx=0;exitDy=0;" edge="1" parent="1" source="NcyJIrhV6fSXzsekD7ug-17" target="NcyJIrhV6fSXzsekD7ug-30">
          <mxGeometry width="50" height="50" relative="1" as="geometry">
            <mxPoint x="540" y="370" as="sourcePoint" />
            <mxPoint x="590" y="320" as="targetPoint" />
          </mxGeometry>
        </mxCell>
        <mxCell id="rtW1V63Y6SK1utUXJB4N-7" value="" style="endArrow=classic;html=1;rounded=0;exitX=0.5;exitY=1;exitDx=0;exitDy=0;" edge="1" parent="1" target="NcyJIrhV6fSXzsekD7ug-30">
          <mxGeometry width="50" height="50" relative="1" as="geometry">
            <mxPoint x="396" y="360" as="sourcePoint" />
            <mxPoint x="290" y="440" as="targetPoint" />
          </mxGeometry>
        </mxCell>
        <mxCell id="rtW1V63Y6SK1utUXJB4N-8" value="" style="endArrow=classic;html=1;rounded=0;exitX=0.417;exitY=1;exitDx=0;exitDy=0;exitPerimeter=0;entryX=0.219;entryY=0.006;entryDx=0;entryDy=0;entryPerimeter=0;" edge="1" parent="1" source="NcyJIrhV6fSXzsekD7ug-15" target="NcyJIrhV6fSXzsekD7ug-30">
          <mxGeometry width="50" height="50" relative="1" as="geometry">
            <mxPoint x="294" y="370" as="sourcePoint" />
            <mxPoint x="240" y="420" as="targetPoint" />
          </mxGeometry>
        </mxCell>
        <mxCell id="rtW1V63Y6SK1utUXJB4N-9" value="" style="endArrow=classic;html=1;rounded=0;exitX=0.306;exitY=1.039;exitDx=0;exitDy=0;exitPerimeter=0;entryX=0;entryY=0.75;entryDx=0;entryDy=0;" edge="1" parent="1" source="NcyJIrhV6fSXzsekD7ug-14" target="NcyJIrhV6fSXzsekD7ug-30">
          <mxGeometry width="50" height="50" relative="1" as="geometry">
            <mxPoint x="140" y="415" as="sourcePoint" />
            <mxPoint x="86" y="465" as="targetPoint" />
          </mxGeometry>
        </mxCell>
        <mxCell id="rtW1V63Y6SK1utUXJB4N-10" value="" style="endArrow=classic;html=1;rounded=0;entryX=0.5;entryY=0;entryDx=0;entryDy=0;" edge="1" parent="1" target="NcyJIrhV6fSXzsekD7ug-17">
          <mxGeometry width="50" height="50" relative="1" as="geometry">
            <mxPoint x="520" y="300" as="sourcePoint" />
            <mxPoint x="470" y="360" as="targetPoint" />
          </mxGeometry>
        </mxCell>
        <mxCell id="rtW1V63Y6SK1utUXJB4N-11" value="" style="endArrow=classic;html=1;rounded=0;" edge="1" parent="1">
          <mxGeometry width="50" height="50" relative="1" as="geometry">
            <mxPoint x="369.58" y="300" as="sourcePoint" />
            <mxPoint x="369.58" y="330" as="targetPoint" />
          </mxGeometry>
        </mxCell>
        <mxCell id="rtW1V63Y6SK1utUXJB4N-13" value="" style="endArrow=classic;html=1;rounded=0;" edge="1" parent="1">
          <mxGeometry width="50" height="50" relative="1" as="geometry">
            <mxPoint x="219.57999999999998" y="300" as="sourcePoint" />
            <mxPoint x="220" y="330" as="targetPoint" />
          </mxGeometry>
        </mxCell>
        <mxCell id="rtW1V63Y6SK1utUXJB4N-14" value="" style="endArrow=classic;html=1;rounded=0;" edge="1" parent="1">
          <mxGeometry width="50" height="50" relative="1" as="geometry">
            <mxPoint x="70" y="300" as="sourcePoint" />
            <mxPoint x="70" y="330" as="targetPoint" />
          </mxGeometry>
        </mxCell>
        <mxCell id="rtW1V63Y6SK1utUXJB4N-15" value="" style="endArrow=classic;html=1;rounded=0;" edge="1" parent="1">
          <mxGeometry width="50" height="50" relative="1" as="geometry">
            <mxPoint x="249.57999999999998" y="290" as="sourcePoint" />
            <mxPoint x="250" y="300" as="targetPoint" />
          </mxGeometry>
        </mxCell>
        <mxCell id="rtW1V63Y6SK1utUXJB4N-16" value="" style="endArrow=classic;html=1;rounded=0;entryX=0.65;entryY=0.033;entryDx=0;entryDy=0;entryPerimeter=0;" edge="1" parent="1" target="NcyJIrhV6fSXzsekD7ug-32">
          <mxGeometry width="50" height="50" relative="1" as="geometry">
            <mxPoint x="335" y="470" as="sourcePoint" />
            <mxPoint x="335" y="540" as="targetPoint" />
            <Array as="points" />
          </mxGeometry>
        </mxCell>
        <mxCell id="rtW1V63Y6SK1utUXJB4N-17" value="" style="endArrow=classic;html=1;rounded=0;entryX=0;entryY=0.25;entryDx=0;entryDy=0;" edge="1" parent="1" target="NcyJIrhV6fSXzsekD7ug-9">
          <mxGeometry width="50" height="50" relative="1" as="geometry">
            <mxPoint x="286" y="472" as="sourcePoint" />
            <mxPoint x="160" y="270" as="targetPoint" />
            <Array as="points">
              <mxPoint x="286.46" y="538.02" />
              <mxPoint x="140" y="540" />
              <mxPoint x="10" y="540" />
              <mxPoint x="10" y="270" />
            </Array>
          </mxGeometry>
        </mxCell>
      </root>
    </mxGraphModel>
  </diagram>
</mxfile>
